<svg width="32" height="32" viewBox="0 0 32 32" fill="none" xmlns="http://www.w3.org/2000/svg">
<path d="M4 10.4C4 8.15979 4 7.03968 4.43597 6.18404C4.81947 5.43139 5.43139 4.81947 6.18404 4.43597C7.03969 4 8.15979 4 10.4 4H21.6C23.8402 4 24.9603 4 25.816 4.43597C26.5686 4.81947 27.1805 5.43139 27.564 6.18404C28 7.03968 28 8.15979 28 10.4V18C28 19.8638 28 20.7956 27.6955 21.5307C27.2895 22.5108 26.5108 23.2895 25.5307 23.6955C24.7957 24 23.8638 24 22 24C21.3486 24 21.0228 24 20.7207 24.0713C20.3177 24.1664 19.9425 24.3541 19.6247 24.6193C19.3863 24.8183 19.1909 25.0788 18.8 25.6L16.8533 28.1956C16.5638 28.5815 16.4191 28.7745 16.2416 28.8436C16.0862 28.904 15.9138 28.904 15.7584 28.8436C15.5809 28.7745 15.4362 28.5815 15.1467 28.1956L13.2 25.6C12.8091 25.0788 12.6137 24.8183 12.3753 24.6193C12.0575 24.3541 11.6823 24.1664 11.2793 24.0713C10.9772 24 10.6514 24 10 24C8.13623 24 7.20435 24 6.46927 23.6955C5.48915 23.2895 4.71046 22.5108 4.30448 21.5307C4 20.7956 4 19.8638 4 18V10.4Z" stroke="white" stroke-width="2" stroke-linecap="round" stroke-linejoin="round"/>
<path d="M16 18V10M12 14H20" stroke="#FE6703" stroke-width="2" stroke-linecap="square" stroke-linejoin="round"/>
</svg>
