<svg width="27" height="27" viewBox="0 0 27 27" fill="none" xmlns="http://www.w3.org/2000/svg">
<g clip-path="url(#clip0_1336_18953)">
<path d="M13.5 0C6.05571 0 0 6.05571 0 13.5C0 20.9443 6.05571 27 13.5 27C20.9443 27 27 20.9443 27 13.5C27 6.05571 20.9443 0 13.5 0ZM14.4643 25.0232V21.2143H12.5357V25.0232C6.92357 24.5604 2.43964 20.0764 1.97679 14.4643H5.78571V12.5357H1.97679C2.43964 6.92357 6.92357 2.43964 12.5357 1.97679V5.78571H14.4643V1.97679C20.0764 2.43964 24.5604 6.92357 25.0232 12.5357H21.2143V14.4643H25.0232C24.5604 20.0764 20.0764 24.5604 14.4643 25.0232Z" fill="white"/>
<path d="M17.9066 7.82998L10.9541 10.6843C10.7131 10.7807 10.5202 10.9832 10.4238 11.2243L7.82985 17.9164C7.69485 18.2732 7.78164 18.6782 8.05164 18.9482C8.23485 19.1314 8.48557 19.2278 8.73628 19.2278C8.852 19.2278 8.96771 19.2085 9.08342 19.1603L15.7756 16.5664C16.0263 16.47 16.2191 16.2771 16.3156 16.036L19.1699 9.08355C19.3145 8.72676 19.2374 8.31212 18.9577 8.03248C18.6781 7.75283 18.2731 7.67569 17.9066 7.82033V7.82998ZM14.6859 14.9271L10.4141 16.5857L12.0727 12.3139L16.5084 10.4914L14.6859 14.9271Z" fill="#FE6703"/>
</g>
<defs>
<clipPath id="clip0_1336_18953">
<rect width="27" height="27" fill="white"/>
</clipPath>
</defs>
</svg>
