<svg width="32" height="32" viewBox="0 0 32 32" fill="none" xmlns="http://www.w3.org/2000/svg">
<path d="M25.3335 6.66675V25.3334" stroke="#FE6703" stroke-width="2" stroke-linecap="square" stroke-linejoin="round"/>
<path d="M6.6665 9.772C6.6665 8.35107 6.6665 7.6406 6.95778 7.2757C7.2111 6.95835 7.59522 6.77373 8.00128 6.77417C8.46818 6.77467 9.02296 7.2185 10.1325 8.10615L17.9175 14.3341C18.6293 14.9036 18.9852 15.1883 19.1141 15.5323C19.227 15.8339 19.227 16.1661 19.1141 16.4677C18.9852 16.8117 18.6293 17.0964 17.9175 17.6659L10.1325 23.8939C9.02296 24.7815 8.46818 25.2253 8.00128 25.2258C7.59522 25.2263 7.2111 25.0417 6.95778 24.7243C6.6665 24.3594 6.6665 23.6489 6.6665 22.228V9.772Z" stroke="white" stroke-width="2" stroke-linecap="square" stroke-linejoin="round"/>
</svg>
