<svg width="32" height="32" viewBox="0 0 32 32" fill="none" xmlns="http://www.w3.org/2000/svg">
<path d="M13.8817 20.5107C14.1643 20.2079 14.1479 19.7333 13.845 19.4507C13.5422 19.1681 13.0676 19.1845 12.785 19.4873L13.8817 20.5107ZM12 23.439L12.75 23.439L12.75 23.4305L12 23.439ZM11.25 27.999V28.749H12.75V27.999H11.25ZM19.215 19.4873C18.9324 19.1845 18.4578 19.1681 18.155 19.4507C17.8521 19.7333 17.8357 20.2079 18.1183 20.5107L19.215 19.4873ZM20 23.439L19.25 23.4305V23.439H20ZM19.25 27.999V28.749H20.75V27.999H19.25ZM8.24 25.879L7.99723 26.5886C8.04566 26.6052 8.09566 26.6168 8.14645 26.6232L8.24 25.879ZM5.70667 22.5857L6.1492 21.9801L6.14286 21.9756L5.70667 22.5857ZM4.03113 21.2497L3.28177 21.2185L3.21952 22.7173L3.96887 22.7484L4.03113 21.2497ZM13.3333 19.999L12.785 19.4873C11.7832 20.5609 11.2335 21.9792 11.25 23.4475L12 23.439L12.75 23.4305C12.7377 22.348 13.143 21.3023 13.8817 20.5107L13.3333 19.999ZM12 23.439L11.25 23.439L11.25 25.399L12 25.399L12.75 25.399L12.75 23.439L12 23.439ZM12 25.399H11.25L11.25 27.999H12H12.75L12.75 25.399H12ZM18.6667 19.999L18.1183 20.5107C18.857 21.3023 19.2623 22.348 19.25 23.4305L20 23.439L20.75 23.4475C20.7665 21.9792 20.2168 20.5609 19.215 19.4873L18.6667 19.999ZM20 23.439H19.25V27.999H20H20.75V23.439H20ZM12 25.399L11.7225 24.7022C10.6475 25.1304 9.48161 25.2792 8.33355 25.1349L8.24 25.879L8.14645 26.6232C9.54591 26.7991 10.9671 26.6177 12.2775 26.0958L12 25.399ZM8.24 25.879L8.48277 25.1694C8.08929 25.0348 7.85468 24.8586 7.69529 24.6798C7.52927 24.4935 7.41263 24.2686 7.30217 23.9851C7.24566 23.8401 7.19691 23.6967 7.13854 23.5305C7.08287 23.3719 7.01919 23.1948 6.94254 23.0209C6.78771 22.6696 6.55819 22.279 6.14918 21.9801L5.70667 22.5857L5.26415 23.1912C5.37514 23.2723 5.46896 23.3968 5.56996 23.6259C5.62123 23.7422 5.66859 23.8717 5.72323 24.0273C5.77517 24.1753 5.83601 24.3538 5.9045 24.5296C6.04404 24.8878 6.23907 25.3004 6.57555 25.6779C6.91865 26.0628 7.37738 26.3766 7.99723 26.5886L8.24 25.879ZM5.70667 22.5857L6.14286 21.9756C5.52448 21.5335 4.79064 21.2812 4.03113 21.2497L4 21.999L3.96887 22.7484C4.43701 22.7678 4.88933 22.9233 5.27048 23.1958L5.70667 22.5857Z" fill="#FE6703"/>
<path fill-rule="evenodd" clip-rule="evenodd" d="M25.3331 12.999C25.3331 16.999 22.7331 19.999 15.9998 19.999C9.26643 19.999 6.66643 16.999 6.66643 12.999C6.63349 11.6113 6.945 10.237 7.57309 8.99902C7.11976 7.03902 7.29309 4.62569 8.26643 4.14569C9.23976 3.66569 11.2931 4.54569 12.9864 5.67902C13.9811 5.50153 14.9894 5.41229 15.9998 5.41236C17.0093 5.40349 18.0177 5.4838 19.0131 5.65236C20.7064 4.51902 22.8531 3.67902 23.7331 4.11902C24.6131 4.55902 24.8798 7.01236 24.4264 8.97236C25.0588 10.2183 25.3705 11.6023 25.3331 12.999Z" stroke="white" stroke-width="1.5" stroke-linecap="round" stroke-linejoin="round"/>
</svg>
