<svg width="32" height="32" viewBox="0 0 32 32" fill="none" xmlns="http://www.w3.org/2000/svg">
<path d="M14.0003 29.1845L14.0004 26.2467C14.0004 26.0876 14.0573 25.9337 14.1609 25.8129L17.4753 21.946C17.7477 21.6282 17.6633 21.141 17.2999 20.9333L13.4916 18.7571C13.3881 18.698 13.3024 18.6122 13.2433 18.5087L10.7608 14.1583C10.6316 13.9319 10.3823 13.8015 10.1226 13.8247L2.75244 14.4811" stroke="#FE6703" stroke-width="2" stroke-linecap="round" stroke-linejoin="round"/>
<path d="M19.9998 3.27715C18.7371 2.88055 17.3934 2.66675 15.9998 2.66675C8.63604 2.66675 2.6665 8.63628 2.6665 16.0001C2.6665 23.3639 8.63604 29.3334 15.9998 29.3334C23.3636 29.3334 29.3332 23.3639 29.3332 16.0001C29.3332 13.713 28.7573 11.5604 27.7427 9.67934M22.6665 7.66675H22.6732M27.9998 8.00008C27.9998 10.9456 25.3332 13.3334 22.6665 16.0001C19.9998 13.3334 17.3332 10.9456 17.3332 8.00008C17.3332 5.05456 19.721 2.66675 22.6665 2.66675C25.612 2.66675 27.9998 5.05456 27.9998 8.00008ZM22.9998 7.66675C22.9998 7.85084 22.8506 8.00008 22.6665 8.00008C22.4824 8.00008 22.3332 7.85084 22.3332 7.66675C22.3332 7.48265 22.4824 7.33341 22.6665 7.33341C22.8506 7.33341 22.9998 7.48265 22.9998 7.66675Z" stroke="white" stroke-width="2" stroke-linecap="round" stroke-linejoin="round"/>
</svg>
