<svg width="32" height="32" viewBox="0 0 32 32" fill="none" xmlns="http://www.w3.org/2000/svg">
<path d="M2.6665 16H7.84246C8.75607 16 9.59126 16.5162 9.99984 17.3333C10.4084 18.1505 11.2436 18.6667 12.1572 18.6667H19.8425C20.7561 18.6667 21.5913 18.1505 21.9998 17.3333C22.4084 16.5162 23.2436 16 24.1572 16H29.3332" stroke="#FE6703" stroke-width="2" stroke-linecap="round" stroke-linejoin="round"/>
<path d="M22.9332 5.33325H9.0665C6.82629 5.33325 5.70619 5.33325 4.85054 5.76923C4.09789 6.15272 3.48597 6.76464 3.10248 7.51729C2.6665 8.37294 2.6665 9.49304 2.6665 11.7333V20.2666C2.6665 22.5068 2.6665 23.6269 3.10248 24.4825C3.48597 25.2352 4.09789 25.8471 4.85054 26.2306C5.70619 26.6666 6.82629 26.6666 9.0665 26.6666H22.9332C25.1734 26.6666 26.2935 26.6666 27.1491 26.2306C27.9018 25.8471 28.5137 25.2352 28.8972 24.4825C29.3332 23.6269 29.3332 22.5068 29.3332 20.2666V11.7333C29.3332 9.49304 29.3332 8.37294 28.8972 7.51729C28.5137 6.76464 27.9018 6.15272 27.1491 5.76923C26.2935 5.33325 25.1734 5.33325 22.9332 5.33325Z" stroke="white" stroke-width="2" stroke-linecap="round" stroke-linejoin="round"/>
</svg>
