<svg width="27" height="27" viewBox="0 0 27 27" fill="none" xmlns="http://www.w3.org/2000/svg">
<g clip-path="url(#clip0_1334_18895)">
<path d="M6.75 21.2139C6.75 21.7463 7.1815 22.1785 7.71387 22.1787H15.4287V19.2861C15.4287 18.221 16.2923 17.3574 17.3574 17.3574H25.0713C26.1364 17.3574 27 18.221 27 19.2861V25.0713C27 26.1364 26.1364 27 25.0713 27H17.3574C16.2923 27 15.4287 26.1364 15.4287 25.0713V24.1074H7.71387C6.11638 24.1072 4.82129 22.8114 4.82129 21.2139V17.3574H6.75V21.2139ZM17.3574 25.0713H25.0713V19.2861H17.3574V25.0713ZM25.0713 0C26.1364 1.24251e-07 27 0.86359 27 1.92871V7.71387C27 8.77899 26.1364 9.64258 25.0713 9.64258H17.3574C16.2923 9.64258 15.4287 8.77899 15.4287 7.71387V5.78613H7.71387C7.1815 5.78636 6.75 6.21758 6.75 6.75V9.64258H4.82129V6.75C4.82129 5.15246 6.11638 3.85765 7.71387 3.85742H15.4287V1.92871C15.4287 0.86359 16.2923 7.76558e-09 17.3574 0H25.0713ZM17.3574 7.71387H25.0713V1.92871H17.3574V7.71387Z" fill="white"/>
<path d="M1.92857 10.6072V16.3929H9.64286V10.6072H1.92857ZM11.5714 16.3929C11.5714 17.458 10.708 18.3214 9.64286 18.3214H1.92857C0.863451 18.3214 0 17.458 0 16.3929V10.6072C0 9.54204 0.863451 8.67859 1.92857 8.67859H9.64286C10.708 8.67859 11.5714 9.54204 11.5714 10.6072V16.3929Z" fill="#FE6703"/>
</g>
<defs>
<clipPath id="clip0_1334_18895">
<rect width="27" height="27" fill="white"/>
</clipPath>
</defs>
</svg>
