<svg width="32" height="32" viewBox="0 0 32 32" fill="none" xmlns="http://www.w3.org/2000/svg">
<path d="M13.3332 20.0001L9.23283 24.1517C8.66088 24.7308 8.37491 25.0203 8.12911 25.0407C7.91585 25.0585 7.70706 24.9727 7.56778 24.8103C7.40724 24.623 7.40724 24.2161 7.40724 23.4021V21.3222C7.40724 20.592 6.80927 20.0637 6.08678 19.9578V19.9578C4.33816 19.7017 2.96487 18.3284 2.70874 16.5798C2.6665 16.2915 2.6665 15.9474 2.6665 15.2593V9.06675C2.6665 6.82654 2.6665 5.70643 3.10248 4.85079C3.48597 4.09814 4.09789 3.48622 4.85054 3.10272C5.70619 2.66675 6.82629 2.66675 9.0665 2.66675H18.9332C21.1734 2.66675 22.2935 2.66675 23.1491 3.10272C23.9018 3.48622 24.5137 4.09814 24.8972 4.85079C25.3332 5.70643 25.3332 6.82654 25.3332 9.06675V14.6667" stroke="white" stroke-width="2" stroke-linecap="round" stroke-linejoin="round"/>
<path d="M29.3335 18.9334C29.3335 17.4399 29.3335 16.6932 29.0428 16.1228C28.7872 15.621 28.3792 15.2131 27.8775 14.9574C27.307 14.6667 26.5603 14.6667 25.0668 14.6667H17.6002C16.1067 14.6667 15.36 14.6667 14.7895 14.9574C14.2878 15.2131 13.8798 15.621 13.6241 16.1228C13.3335 16.6932 13.3335 17.4399 13.3335 18.9334V22.2858C13.3335 23.7793 13.3335 24.526 13.6241 25.0964C13.8798 25.5982 14.2878 26.0062 14.7895 26.2618C15.36 26.5525 16.1067 26.5525 17.6002 26.5525H19.9961C20.4929 26.5525 20.7413 26.5525 20.9809 26.5966C21.1936 26.6358 21.4008 26.7008 21.5978 26.79C21.8197 26.8905 22.0237 27.0323 22.4316 27.3159L25.3335 29.3334V26.5525C26.576 26.5525 27.1973 26.5525 27.6873 26.3495C28.3407 26.0788 28.8599 25.5597 29.1305 24.9063C29.3335 24.4162 29.3335 23.795 29.3335 22.5525V18.9334Z" stroke="#FE6703" stroke-width="2" stroke-linecap="round" stroke-linejoin="round"/>
</svg>
