<svg width="27" height="27" viewBox="0 0 27 27" fill="none" xmlns="http://www.w3.org/2000/svg">
<path d="M24.8304 10.6071V5.78571C24.8304 5.45786 24.6664 5.14929 24.3868 4.97571C24.3482 4.94679 24.3 4.93714 24.2614 4.91786L13.6543 0.0867857C13.4036 -0.0289286 13.1143 -0.0289286 12.8539 0.0867857L2.25643 4.90821C2.25643 4.90821 2.16964 4.94679 2.13107 4.97571C1.85143 5.14929 1.6875 5.45786 1.6875 5.78571V10.6071C1.6875 10.9832 1.90929 11.3304 2.25643 11.4846L6.69214 13.5L2.25643 15.5154C2.25643 15.5154 2.16964 15.5539 2.13107 15.5829C1.85143 15.7564 1.6875 16.065 1.6875 16.3929V21.2143C1.6875 21.5904 1.90929 21.9375 2.25643 22.0918L12.8636 26.9132C12.9889 26.9711 13.1239 27 13.2589 27C13.3939 27 13.5289 26.9711 13.6543 26.9132L24.2614 22.0918C24.6086 21.9375 24.8304 21.5904 24.8304 21.2143V16.3929C24.8304 16.065 24.6664 15.7564 24.3868 15.5829C24.3482 15.5539 24.3 15.5443 24.2614 15.525L19.8257 13.5L24.2614 11.4846C24.6086 11.3304 24.8304 10.9832 24.8304 10.6071ZM13.2589 2.025L21.5325 5.78571L13.2589 9.54643L4.98536 5.78571L13.2589 2.025ZM3.61607 7.28036L12.2946 11.2243V13.9243L3.61607 9.98036V7.28036ZM12.2946 24.5411L3.61607 20.5971V17.8971L12.2946 21.8411V24.5411ZM22.9018 20.5971L14.2232 24.5411V21.8411L22.9018 17.8971V20.5971ZM21.5325 16.3929L13.2589 20.1536L4.98536 16.3929L9.01607 14.5607L12.8636 16.3061C12.9889 16.3639 13.1239 16.3929 13.2589 16.3929C13.3939 16.3929 13.5289 16.3639 13.6543 16.3061L17.5018 14.5607L21.5325 16.3929ZM22.9018 9.99L14.2232 13.9339V11.2339L22.9018 7.29V9.99Z" fill="white"/>
<path fill-rule="evenodd" clip-rule="evenodd" d="M6.69214 13.5L2.25643 15.5154C2.25643 15.5154 2.16964 15.5539 2.13107 15.5829C1.85143 15.7564 1.6875 16.065 1.6875 16.3929V21.2143C1.6875 21.5904 1.90929 21.9375 2.25643 22.0918L12.8636 26.9132C12.9889 26.9711 13.1239 27 13.2589 27C13.3939 27 13.5289 26.9711 13.6543 26.9132L24.2614 22.0918C24.6086 21.9375 24.8304 21.5904 24.8304 21.2143V16.3929C24.8304 16.065 24.6664 15.7564 24.3868 15.5829C24.3624 15.5645 24.3341 15.5539 24.3068 15.5437C24.291 15.5378 24.2756 15.5321 24.2614 15.525L19.8257 13.5L17.5018 14.5607L21.5325 16.3929L13.2589 20.1536L4.98536 16.3929L9.01607 14.5607L6.69214 13.5ZM3.61607 20.5971L12.2946 24.5411V21.8411L3.61607 17.8971V20.5971ZM14.2232 24.5411L22.9018 20.5971V17.8971L14.2232 21.8411V24.5411Z" fill="#FE6703"/>
</svg>
