<svg width="32" height="32" viewBox="0 0 32 32" fill="none" xmlns="http://www.w3.org/2000/svg">
<path d="M20.0673 12H7.33333C5.49238 12 4 10.5076 4 8.66665C4 6.8257 5.49238 5.33331 7.33333 5.33331H20.0673M11.9327 26.6666H24.6667C26.5076 26.6666 28 25.1743 28 23.3333C28 21.4924 26.5076 20 24.6667 20H11.9327" stroke="white" stroke-width="1.5" stroke-linecap="round" stroke-linejoin="round"/>
<path d="M8.66667 28C6.08934 28 4 25.9107 4 23.3333C4 20.756 6.08934 18.6667 8.66667 18.6667C11.244 18.6667 13.3333 20.756 13.3333 23.3333C13.3333 25.9107 11.244 28 8.66667 28Z" stroke="#FE6703" stroke-width="2" stroke-linecap="round" stroke-linejoin="round"/>
<path d="M23.3333 13.3333C25.9107 13.3333 28 11.244 28 8.66667C28 6.08934 25.9107 4 23.3333 4C20.756 4 18.6667 6.08934 18.6667 8.66667C18.6667 11.244 20.756 13.3333 23.3333 13.3333Z" stroke="#FE6703" stroke-width="2" stroke-linecap="round" stroke-linejoin="round"/>
</svg>
