<svg width="32" height="32" viewBox="0 0 32 32" fill="none" xmlns="http://www.w3.org/2000/svg">
<path d="M7.99984 8.00002L13.9998 14M7.99984 8.00002H3.99984L2.6665 4.00002L3.99984 2.66669L7.99984 4.00002V8.00002ZM15.9999 19.9999L23.3332 27.3332C24.4377 28.4378 26.2286 28.4378 27.3332 27.3332C28.4377 26.2286 28.4377 24.4378 27.3331 23.3332L21.3003 17.3004C20.8732 17.26 20.4568 17.183 20.0542 17.0725C19.5355 16.9301 18.9664 17.0334 18.5861 17.4138L15.9999 19.9999Z" stroke="#FE6703" stroke-width="1.5" stroke-linecap="round" stroke-linejoin="round"/>
<path d="M25.6788 3.6547L22.1753 7.15819C21.6473 7.68622 21.3833 7.95023 21.2843 8.25466C21.1973 8.52246 21.1973 8.81092 21.2843 9.07871C21.3833 9.38315 21.6473 9.64716 22.1753 10.1752L22.4916 10.4915C23.0197 11.0195 23.2837 11.2836 23.5881 11.3825C23.8559 11.4695 24.1444 11.4695 24.4122 11.3825C24.7166 11.2836 24.9806 11.0195 25.5086 10.4915L28.7858 7.21431C29.1388 8.0732 29.3335 9.01388 29.3335 10C29.3335 14.0501 26.0502 17.3334 22.0001 17.3334C21.5119 17.3334 21.0347 17.2856 20.5731 17.1946C19.925 17.0668 19.6009 17.0028 19.4044 17.0224C19.1955 17.0432 19.0926 17.0746 18.9075 17.1736C18.7334 17.2668 18.5588 17.4414 18.2095 17.7906L8.6668 27.3333C7.56223 28.4379 5.77137 28.4379 4.66681 27.3333C3.56224 26.2288 3.56224 24.4379 4.66681 23.3333L14.2095 13.7906C14.5588 13.4414 14.7334 13.2668 14.8266 13.0927C14.9256 12.9076 14.9569 12.8046 14.9777 12.5958C14.9973 12.3993 14.9334 12.0752 14.8056 11.427C14.7145 10.9654 14.6668 10.4883 14.6668 10C14.6668 5.94993 17.95 2.66669 22.0001 2.66669C23.3408 2.66669 24.5974 3.02645 25.6788 3.6547Z" stroke="white" stroke-width="2" stroke-linecap="round" stroke-linejoin="round"/>
</svg>
