<svg width="27" height="27" viewBox="0 0 27 27" fill="none" xmlns="http://www.w3.org/2000/svg">
<path fill-rule="evenodd" clip-rule="evenodd" d="M25.5536 7.71429C26.3524 7.71429 27 8.36187 27 9.16071V25.5536C27 26.3524 26.3524 27 25.5536 27H9.16071C8.36187 27 7.71429 26.3524 7.71429 25.5536V9.16071C7.71429 8.36187 8.36187 7.71429 9.16071 7.71429H25.5536ZM9.64286 25.0714H25.0714V9.64286H9.64286V25.0714Z" fill="black"/>
<path d="M1.92857 17.3571H3.85714V19.2857H1.44643C0.647588 19.2857 3.10626e-08 18.6381 0 17.8393V15.4286H1.92857V17.3571Z" fill="#FE6703"/>
<path d="M1.92857 11.5714H0V7.71429H1.92857V11.5714Z" fill="#FE6703"/>
<path d="M3.85714 1.92857H1.92857V3.85714H0V1.44643C3.10626e-08 0.647588 0.647588 7.76558e-09 1.44643 0H3.85714V1.92857Z" fill="#FE6703"/>
<path d="M17.8393 0C18.6381 7.76558e-09 19.2857 0.647588 19.2857 1.44643V3.85714H17.3571V1.92857H15.4286V0H17.8393Z" fill="#FE6703"/>
<path d="M11.5714 1.92857H7.71429V0H11.5714V1.92857Z" fill="#FE6703"/>
</svg>
