<svg width="27" height="27" viewBox="0 0 27 27" fill="none" xmlns="http://www.w3.org/2000/svg">
<g clip-path="url(#clip0_1342_19275)">
<path d="M13.5 0C6.05571 0 0 6.05571 0 13.5C0 20.9443 6.05571 27 13.5 27C20.9443 27 27 20.9443 27 13.5C27 6.05571 20.9443 0 13.5 0ZM14.4643 25.0232V21.2143H12.5357V25.0232C6.92357 24.5604 2.43964 20.0764 1.97679 14.4643H5.78571V12.5357H1.97679C2.43964 6.92357 6.92357 2.43964 12.5357 1.97679V5.78571H14.4643V1.97679C20.0764 2.43964 24.5604 6.92357 25.0232 12.5357H21.2143V14.4643H25.0232C24.5604 20.0764 20.0764 24.5604 14.4643 25.0232Z" fill="black"/>
<path d="M17.9069 7.82998L10.9544 10.6843C10.7133 10.7807 10.5205 10.9832 10.424 11.2243L7.8301 17.9164C7.6951 18.2732 7.78188 18.6782 8.05188 18.9482C8.2351 19.1314 8.48581 19.2278 8.73653 19.2278C8.85224 19.2278 8.96795 19.2085 9.08367 19.1603L15.7758 16.5664C16.0265 16.47 16.2194 16.2771 16.3158 16.036L19.1701 9.08355C19.3147 8.72676 19.2376 8.31212 18.958 8.03248C18.6783 7.75283 18.2733 7.67569 17.9069 7.82033V7.82998ZM14.6862 14.9271L10.4144 16.5857L12.073 12.3139L16.5087 10.4914L14.6862 14.9271Z" fill="#FE6703"/>
</g>
<defs>
<clipPath id="clip0_1342_19275">
<rect width="27" height="27" fill="white"/>
</clipPath>
</defs>
</svg>
