<svg width="27" height="27" viewBox="0 0 27 27" fill="none" xmlns="http://www.w3.org/2000/svg">
<g clip-path="url(#clip0_1342_19280)">
<path d="M11.9379 25.0714H1.92857V15.0621H5.7375V13.1335H1.92857C0.867857 13.1335 0 14.0014 0 15.0621V25.0714C0 26.1321 0.867857 27 1.92857 27H11.9379C12.9986 27 13.8664 26.1321 13.8664 25.0714V21.2143H11.9379V25.0714Z" fill="black"/>
<path d="M11.9379 25.0714H1.92857V15.0621H5.7375V13.1335H1.92857C0.867857 13.1335 0 14.0014 0 15.0621V25.0714C0 26.1321 0.867857 27 1.92857 27H11.9379C12.9986 27 13.8664 26.1321 13.8664 25.0714V21.2143H11.9379V25.0714Z" fill="#FE6703"/>
<path d="M25.0714 0H11.475C10.4142 0 9.54639 0.867857 9.54639 1.92857V15.525C9.54639 16.5857 10.4142 17.4536 11.475 17.4536H25.0714C26.1321 17.4536 27 16.5857 27 15.525V1.92857C27 0.867857 26.1321 0 25.0714 0ZM25.0714 15.525H11.475V1.92857H25.0714V15.525Z" fill="black"/>
</g>
<defs>
<clipPath id="clip0_1342_19280">
<rect width="27" height="27" fill="white"/>
</clipPath>
</defs>
</svg>
