<svg width="32" height="32" viewBox="0 0 32 32" fill="none" xmlns="http://www.w3.org/2000/svg">
<path d="M25.3333 6.66675V25.3334" stroke="#FE6703" stroke-width="2" stroke-linecap="square" stroke-linejoin="round"/>
<path d="M6.66675 9.772C6.66675 8.35107 6.66675 7.6406 6.95802 7.2757C7.21134 6.95835 7.59547 6.77373 8.00152 6.77417C8.46842 6.77467 9.0232 7.2185 10.1328 8.10615L17.9178 14.3341C18.6296 14.9036 18.9855 15.1883 19.1143 15.5323C19.2273 15.8339 19.2273 16.1661 19.1143 16.4677C18.9855 16.8117 18.6296 17.0964 17.9178 17.6659L10.1328 23.8939C9.0232 24.7815 8.46842 25.2253 8.00152 25.2258C7.59547 25.2263 7.21134 25.0417 6.95802 24.7243C6.66675 24.3594 6.66675 23.6489 6.66675 22.228V9.772Z" stroke="#030711" stroke-width="2" stroke-linecap="square" stroke-linejoin="round"/>
</svg>
