<svg width="32" height="32" viewBox="0 0 32 32" fill="none" xmlns="http://www.w3.org/2000/svg">
<path d="M14 29.1845L14.0002 26.2467C14.0002 26.0876 14.0571 25.9337 14.1607 25.8129L17.475 21.946C17.7474 21.6282 17.663 21.141 17.2996 20.9333L13.4913 18.7571C13.3879 18.698 13.3021 18.6122 13.2431 18.5087L10.7606 14.1583C10.6314 13.9319 10.3821 13.8015 10.1224 13.8247L2.7522 14.4811" stroke="#FE6703" stroke-width="2" stroke-linecap="round" stroke-linejoin="round"/>
<path d="M20.0001 3.27715C18.7374 2.88055 17.3937 2.66675 16.0001 2.66675C8.63628 2.66675 2.66675 8.63628 2.66675 16.0001C2.66675 23.3639 8.63628 29.3334 16.0001 29.3334C23.3639 29.3334 29.3334 23.3639 29.3334 16.0001C29.3334 13.713 28.7576 11.5604 27.7429 9.67934M22.6667 7.66675H22.6734M28.0001 8.00008C28.0001 10.9456 25.3334 13.3334 22.6667 16.0001C20.0001 13.3334 17.3334 10.9456 17.3334 8.00008C17.3334 5.05456 19.7212 2.66675 22.6667 2.66675C25.6123 2.66675 28.0001 5.05456 28.0001 8.00008ZM23.0001 7.66675C23.0001 7.85084 22.8508 8.00008 22.6667 8.00008C22.4827 8.00008 22.3334 7.85084 22.3334 7.66675C22.3334 7.48265 22.4827 7.33341 22.6667 7.33341C22.8508 7.33341 23.0001 7.48265 23.0001 7.66675Z" stroke="#030711" stroke-width="2" stroke-linecap="round" stroke-linejoin="round"/>
</svg>
