<svg width="32" height="32" viewBox="0 0 32 32" fill="none" xmlns="http://www.w3.org/2000/svg">
<path d="M2.66675 16H7.8427C8.75631 16 9.5915 16.5162 10.0001 17.3333C10.4087 18.1505 11.2439 18.6667 12.1575 18.6667H19.8427C20.7563 18.6667 21.5915 18.1505 22.0001 17.3333C22.4087 16.5162 23.2439 16 24.1575 16H29.3334" stroke="#FE6703" stroke-width="2" stroke-linecap="round" stroke-linejoin="round"/>
<path d="M22.9334 5.33325H9.06675C6.82654 5.33325 5.70643 5.33325 4.85079 5.76923C4.09814 6.15272 3.48622 6.76464 3.10272 7.51729C2.66675 8.37294 2.66675 9.49304 2.66675 11.7333V20.2666C2.66675 22.5068 2.66675 23.6269 3.10272 24.4825C3.48622 25.2352 4.09814 25.8471 4.85079 26.2306C5.70643 26.6666 6.82654 26.6666 9.06675 26.6666H22.9334C25.1736 26.6666 26.2937 26.6666 27.1494 26.2306C27.902 25.8471 28.5139 25.2352 28.8974 24.4825C29.3334 23.6269 29.3334 22.5068 29.3334 20.2666V11.7333C29.3334 9.49304 29.3334 8.37294 28.8974 7.51729C28.5139 6.76464 27.902 6.15272 27.1494 5.76923C26.2937 5.33325 25.1736 5.33325 22.9334 5.33325Z" stroke="#030711" stroke-width="2" stroke-linecap="round" stroke-linejoin="round"/>
</svg>
