<svg width="27" height="27" viewBox="0 0 27 27" fill="none" xmlns="http://www.w3.org/2000/svg">
<g clip-path="url(#clip0_1342_19231)">
<path d="M16.3926 0C18.7797 0 20.9858 0.790026 22.7588 2.12207L21.6006 3.66406C20.1501 2.57426 18.3478 1.92871 16.3926 1.92871C11.5997 1.92886 7.71387 5.81447 7.71387 10.6074C7.71402 15.4002 11.5998 19.286 16.3926 19.2861C18.3478 19.2861 20.1501 18.6396 21.6006 17.5498L22.7588 19.0928C20.9858 20.4248 18.7797 21.2139 16.3926 21.2139C13.8107 21.2138 11.4448 20.2912 9.60547 18.7578L1.64648 26.7178L0.282227 25.3535L8.24121 17.3936C6.70839 15.5544 5.7862 13.1888 5.78613 10.6074C5.78613 4.74935 10.5345 0.000151834 16.3926 0Z" fill="black"/>
<path d="M27.0001 3.85718L27.0001 15.4286L25.0715 15.4286L25.0715 3.85718L27.0001 3.85718Z" fill="#FE6703"/>
<path d="M21.2143 5.78577L21.2143 15.4286L23.1428 15.4286L23.1428 5.78577L21.2143 5.78577Z" fill="#FE6703"/>
<path d="M19.2857 7.71423V15.4285H17.3572V7.71423H19.2857Z" fill="#FE6703"/>
</g>
<defs>
<clipPath id="clip0_1342_19231">
<rect width="27" height="27" fill="white"/>
</clipPath>
</defs>
</svg>
