<svg width="32" height="32" viewBox="0 0 32 32" fill="none" xmlns="http://www.w3.org/2000/svg">
<path d="M13.3333 20.0001L9.23295 24.1517C8.66101 24.7308 8.37503 25.0203 8.12923 25.0407C7.91598 25.0585 7.70718 24.9727 7.5679 24.8103C7.40737 24.623 7.40737 24.2161 7.40737 23.4021V21.3222C7.40737 20.592 6.80939 20.0637 6.0869 19.9578V19.9578C4.33828 19.7017 2.96499 18.3284 2.70886 16.5798C2.66663 16.2915 2.66663 15.9474 2.66663 15.2593V9.06675C2.66663 6.82654 2.66663 5.70643 3.1026 4.85079C3.48609 4.09814 4.09802 3.48622 4.85066 3.10272C5.70631 2.66675 6.82642 2.66675 9.06663 2.66675H18.9333C21.1735 2.66675 22.2936 2.66675 23.1493 3.10272C23.9019 3.48622 24.5138 4.09814 24.8973 4.85079C25.3333 5.70643 25.3333 6.82654 25.3333 9.06675V14.6667" stroke="#030711" stroke-width="2" stroke-linecap="round" stroke-linejoin="round"/>
<path d="M29.3334 18.9334C29.3334 17.4399 29.3334 16.6932 29.0427 16.1228C28.7871 15.621 28.3791 15.2131 27.8773 14.9574C27.3069 14.6667 26.5602 14.6667 25.0667 14.6667H17.6C16.1066 14.6667 15.3598 14.6667 14.7894 14.9574C14.2876 15.2131 13.8797 15.621 13.624 16.1228C13.3334 16.6932 13.3334 17.4399 13.3334 18.9334V22.2858C13.3334 23.7793 13.3334 24.526 13.624 25.0964C13.8797 25.5982 14.2876 26.0062 14.7894 26.2618C15.3598 26.5525 16.1066 26.5525 17.6 26.5525H19.9959C20.4928 26.5525 20.7412 26.5525 20.9808 26.5966C21.1935 26.6358 21.4006 26.7008 21.5976 26.79C21.8196 26.8905 22.0236 27.0323 22.4315 27.3159L25.3334 29.3334V26.5525C26.5759 26.5525 27.1971 26.5525 27.6872 26.3495C28.3406 26.0788 28.8597 25.5597 29.1304 24.9063C29.3334 24.4162 29.3334 23.795 29.3334 22.5525V18.9334Z" stroke="#FE6703" stroke-width="2" stroke-linecap="round" stroke-linejoin="round"/>
</svg>
