<svg width="24" height="27" viewBox="0 0 24 27" fill="none" xmlns="http://www.w3.org/2000/svg">
<path d="M23.1429 10.6071V5.78571C23.1429 5.45786 22.9789 5.14929 22.6993 4.97571C22.6607 4.94679 22.6125 4.93714 22.5739 4.91786L11.9668 0.0867857C11.7161 -0.0289286 11.4268 -0.0289286 11.1664 0.0867857L0.568928 4.90821C0.568928 4.90821 0.482143 4.94679 0.443571 4.97571C0.163929 5.14929 0 5.45786 0 5.78571V10.6071C0 10.9832 0.221786 11.3304 0.568928 11.4846L5.00464 13.5L0.568928 15.5154C0.568928 15.5154 0.482143 15.5539 0.443571 15.5829C0.163929 15.7564 0 16.065 0 16.3929V21.2143C0 21.5904 0.221786 21.9375 0.568928 22.0918L11.1761 26.9132C11.3014 26.9711 11.4364 27 11.5714 27C11.7064 27 11.8414 26.9711 11.9668 26.9132L22.5739 22.0918C22.9211 21.9375 23.1429 21.5904 23.1429 21.2143V16.3929C23.1429 16.065 22.9789 15.7564 22.6993 15.5829C22.6607 15.5539 22.6125 15.5443 22.5739 15.525L18.1382 13.5L22.5739 11.4846C22.9211 11.3304 23.1429 10.9832 23.1429 10.6071ZM11.5714 2.025L19.845 5.78571L11.5714 9.54643L3.29786 5.78571L11.5714 2.025ZM1.92857 7.28036L10.6071 11.2243V13.9243L1.92857 9.98036V7.28036ZM10.6071 24.5411L1.92857 20.5971V17.8971L10.6071 21.8411V24.5411ZM21.2143 20.5971L12.5357 24.5411V21.8411L21.2143 17.8971V20.5971ZM19.845 16.3929L11.5714 20.1536L3.29786 16.3929L7.32857 14.5607L11.1761 16.3061C11.3014 16.3639 11.4364 16.3929 11.5714 16.3929C11.7064 16.3929 11.8414 16.3639 11.9668 16.3061L15.8143 14.5607L19.845 16.3929ZM21.2143 9.99L12.5357 13.9339V11.2339L21.2143 7.29V9.99Z" fill="black"/>
<path fill-rule="evenodd" clip-rule="evenodd" d="M5.00464 13.5L0.568928 15.5154C0.568928 15.5154 0.482143 15.5539 0.443571 15.5829C0.163929 15.7564 0 16.065 0 16.3929V21.2143C0 21.5904 0.221786 21.9375 0.568928 22.0918L11.1761 26.9132C11.3014 26.9711 11.4364 27 11.5714 27C11.7064 27 11.8414 26.9711 11.9668 26.9132L22.5739 22.0918C22.9211 21.9375 23.1429 21.5904 23.1429 21.2143V16.3929C23.1429 16.065 22.9789 15.7564 22.6993 15.5829C22.6749 15.5645 22.6466 15.5539 22.6193 15.5437C22.6035 15.5378 22.5881 15.5321 22.5739 15.525L18.1382 13.5L15.8143 14.5607L19.845 16.3929L11.5714 20.1536L3.29786 16.3929L7.32857 14.5607L5.00464 13.5ZM1.92857 20.5971L10.6071 24.5411V21.8411L1.92857 17.8971V20.5971ZM12.5357 24.5411L21.2143 20.5971V17.8971L12.5357 21.8411V24.5411Z" fill="#FE6703"/>
</svg>
