<svg width="32" height="32" viewBox="0 0 32 32" fill="none" xmlns="http://www.w3.org/2000/svg">
<path d="M8.00008 8.00002L14.0001 14M8.00008 8.00002H4.00008L2.66675 4.00002L4.00008 2.66669L8.00008 4.00002V8.00002ZM16.0002 19.9999L23.3334 27.3332C24.438 28.4378 26.2288 28.4378 27.3334 27.3332C28.438 26.2286 28.438 24.4378 27.3334 23.3332L21.3005 17.3004C20.8734 17.26 20.457 17.183 20.0545 17.0725C19.5357 16.9301 18.9667 17.0334 18.5863 17.4138L16.0002 19.9999Z" stroke="#FE6703" stroke-width="1.5" stroke-linecap="round" stroke-linejoin="round"/>
<path d="M25.6785 3.6547L22.1751 7.15819C21.647 7.68622 21.383 7.95023 21.2841 8.25466C21.1971 8.52246 21.1971 8.81092 21.2841 9.07871C21.383 9.38315 21.647 9.64716 22.1751 10.1752L22.4914 10.4915C23.0194 11.0195 23.2834 11.2836 23.5879 11.3825C23.8557 11.4695 24.1441 11.4695 24.4119 11.3825C24.7164 11.2836 24.9804 11.0195 25.5084 10.4915L28.7856 7.21431C29.1386 8.0732 29.3332 9.01388 29.3332 10C29.3332 14.0501 26.05 17.3334 21.9999 17.3334C21.5116 17.3334 21.0345 17.2856 20.5729 17.1946C19.9247 17.0668 19.6006 17.0028 19.4041 17.0224C19.1953 17.0432 19.0923 17.0746 18.9072 17.1736C18.7332 17.2668 18.5585 17.4414 18.2093 17.7906L8.66656 27.3333C7.56199 28.4379 5.77113 28.4379 4.66656 27.3333C3.56199 26.2288 3.56199 24.4379 4.66656 23.3333L14.2093 13.7906C14.5585 13.4414 14.7332 13.2668 14.8263 13.0927C14.9254 12.9076 14.9567 12.8046 14.9775 12.5958C14.9971 12.3993 14.9331 12.0752 14.8053 11.427C14.7143 10.9654 14.6666 10.4883 14.6666 10C14.6666 5.94993 17.9498 2.66669 21.9999 2.66669C23.3406 2.66669 24.5972 3.02645 25.6785 3.6547Z" stroke="#030711" stroke-width="2" stroke-linecap="round" stroke-linejoin="round"/>
</svg>
